<svg xmlns="http://www.w3.org/2000/svg" viewBox="0 0 788.09 180.61"><defs><style>.cls-1{fill:#0fad84;}.cls-2{fill:#14b5c2;}.cls-3{fill:#d0547d;}.cls-4{fill:#a12650;}.cls-5{fill:#fff;}.cls-6{fill:#ea5726;}.cls-7{fill:#f9af1b;}</style></defs><title>Artboard 1</title><g id="Layer_1" data-name="Layer 1"><path class="cls-1" d="M53.86,60.31a5.3,5.3,0,0,1-2.13,3.8,129.43,129.43,0,0,0,11.86,33,119.51,119.51,0,0,1,24.47-42.8A131.08,131.08,0,0,0,53.86,60.31Z"/><path class="cls-2" d="M47.26,65a5.32,5.32,0,0,1-2.51-1.44A131.12,131.12,0,0,0,19.49,77,115.21,115.21,0,0,0,59.33,98.84,134.62,134.62,0,0,1,47.26,65Z"/><path class="cls-3" d="M122,108.89a136,136,0,0,1-23.54,28,5.13,5.13,0,0,1,.2,1.42,5.24,5.24,0,0,1-.16,1.26,131.84,131.84,0,0,0,24.36,15.37,115.46,115.46,0,0,0,1.9-20.86A115.55,115.55,0,0,0,122,108.89Z"/><path class="cls-4" d="M93.39,108.54A119.61,119.61,0,0,1,68.61,106a131.19,131.19,0,0,0,22.68,27.38,5.32,5.32,0,0,1,4.21,0,131.47,131.47,0,0,0,23-27.5A120,120,0,0,1,93.39,108.54Z"/><path class="cls-5" d="M119.19,98.6A115.15,115.15,0,0,0,95.07,57a5.47,5.47,0,0,1-1.68.27A5.37,5.37,0,0,1,91.78,57a114.83,114.83,0,0,0-24,41.88,5.39,5.39,0,0,1,1.31,2.5A115.45,115.45,0,0,0,93.39,104a115.58,115.58,0,0,0,24.16-2.55A5.21,5.21,0,0,1,119.19,98.6Z"/><path class="cls-6" d="M133.41,60.44a131.17,131.17,0,0,0-34.6-6.09,119.48,119.48,0,0,1,24.71,42.84,129.79,129.79,0,0,0,12-33.07A5.35,5.35,0,0,1,133.41,60.44Z"/><path class="cls-7" d="M137.22,54.71a132,132,0,0,0,1.31-18.57c0-3.44-.14-6.93-.41-10.42A115.31,115.31,0,0,0,98.86,49.8a135.1,135.1,0,0,1,36,6.33A5.42,5.42,0,0,1,137.22,54.71Z"/><path class="cls-5" d="M235.48,121.84H230l-7.69-20.63H191.36q-1.67,4.86-3.62,10.29T184,121.84h-4.87q3.09-8.32,6.11-16.29t6-15.86l6-15.86q3-8,6.11-16.24h6.48ZM221,97.51l-14.57-35.7-13.83,35.7Z"/><path class="cls-5" d="M349.48,121.84H304.1V57.65h43.83v4.69H308.69V86.08h36.77v4.69H308.69v26.38h40.79Z"/><path class="cls-5" d="M472.66,121.84h-5.05l-6.25-17.06a41.71,41.71,0,0,0-2-4.63,16.88,16.88,0,0,0-2.61-3.78,11.59,11.59,0,0,0-3.41-2.55,10.23,10.23,0,0,0-4.51-.94h-22v29h-4.59V57.65h28.29a39.25,39.25,0,0,1,7.66.73A18.73,18.73,0,0,1,464.77,61a13.4,13.4,0,0,1,4.62,5.19,18.28,18.28,0,0,1,1.72,8.47,22.23,22.23,0,0,1-.77,6,15.67,15.67,0,0,1-2.35,5,14.31,14.31,0,0,1-4,3.75,17.28,17.28,0,0,1-5.71,2.26,23.37,23.37,0,0,1,2.93,2.7,16.93,16.93,0,0,1,2,2.75,23.52,23.52,0,0,1,1.49,3.23l1.52,4ZM426.82,88.19h21.8a39.1,39.1,0,0,0,8-.7,13.75,13.75,0,0,0,5.48-2.32A9.57,9.57,0,0,0,465.26,81a17.06,17.06,0,0,0,1-6.33q0-6.63-4.1-9.47t-12.25-2.84H426.82Z"/><path class="cls-5" d="M569.39,123a34,34,0,0,1-9.61-1.2,20.37,20.37,0,0,1-6.62-3.26,16,16,0,0,1-4.19-4.81,24.11,24.11,0,0,1-2.35-5.86,33.91,33.91,0,0,1-1-6.45q-.2-3.34-.2-6.51V57.65H550V94.76a45.41,45.41,0,0,0,1.29,11.93,16.58,16.58,0,0,0,3.79,7.18,12.81,12.81,0,0,0,6.08,3.52,32.92,32.92,0,0,0,8.23.94,33.86,33.86,0,0,0,8.35-.94,12.34,12.34,0,0,0,6.08-3.55,16.85,16.85,0,0,0,3.7-7.18,45.59,45.59,0,0,0,1.27-11.9V57.65h4.59V94.93a58.75,58.75,0,0,1-1.09,11.85,22,22,0,0,1-3.79,8.82,17,17,0,0,1-7.34,5.51A31.26,31.26,0,0,1,569.39,123Z"/><path class="cls-5" d="M727,121.84h-4.59V65.33L699.8,121.84H695L672.44,65.33v56.51h-4.59V57.65h6.65L697.39,116l23.07-58.33H727Z"/></g></svg>