<?xml version="1.0" encoding="utf-8"?>
<!-- Generator: Adobe Illustrator 23.0.6, SVG Export Plug-In . SVG Version: 6.00 Build 0)  -->
<svg version="1.1" id="Layer_1" xmlns="http://www.w3.org/2000/svg" xmlns:xlink="http://www.w3.org/1999/xlink" x="0px" y="0px"
	 viewBox="0 0 1570.7 272.9" style="enable-background:new 0 0 1570.7 272.9;" xml:space="preserve">
<style type="text/css">
	.st0{fill:#E72381;}
	.st1{fill:#1D1D1D;}
</style>
<path class="st0" d="M257.3,16.7C249.4,3,230.7-2.5,204.6,1.1c-23.3,3.3-50.8,13.5-77.2,28.7c-25.6,14.8-49.6,34.3-64.5,53.9
	c-26.8-5-49.5-1.8-59,14.5c-17.4,30.1,26.4,77.1,76.4,106c26.4,15.3,53.9,25.5,77.2,28.7c1.1,0.2,2.2,0.3,3.3,0.4
	c9,23.5,22.6,39.5,40.4,39.5c34.8,0,53.5-61.4,53.5-119.1c0-28.4-4.5-57.6-13.3-80.1C258.6,53.4,266.6,32.7,257.3,16.7z M71,103.9
	c15.7,4.3,34.1,11.7,53.9,23.1c0.4,0.2,0.8,0.5,1.3,0.7c-31.6,10.1-54.3,8-59.5-0.9C63.8,122,65.3,113.9,71,103.9z M89.3,188.6
	c-54.3-31.3-77.2-68.5-69.8-81.3c2.8-4.8,10.7-7.7,22.3-7.7c3.6,0,7.1,0.3,10.7,0.7c-6.2,12.9-7.4,25.2-1.5,35.5
	c6.8,11.7,20.3,16.7,37.4,16.7c13.4,0,28.9-3.1,44.8-8.3c3.9-1.3,7.9-2.7,11.8-4.3c0.9,0.6,1.9,1.4,2.9,2.1
	c-0.2,3.9-0.2,7.9-0.2,11.8c0,20.7,2.4,41.8,7.1,60.4C134.8,210.6,111.8,201.6,89.3,188.6z M173.9,216c-4.7-15.8-7.9-35.9-8.1-59.6
	c24.5,22.3,34.1,43,28.9,52C191.8,213.2,184.4,215.8,173.9,216z M201.2,254.9c-6.5,0-14.2-7.5-20.8-21.2c14.2-1.5,24.4-7,29.8-16.2
	c13.4-23.3-9.6-56.6-43.8-83.8c0.1-1.1,0.2-2.3,0.3-3.4c4.8-2.4,9.5-4.9,14.2-7.6c17-9.8,33.3-21.7,46.7-34.4
	c5.4,16.8,9.1,39,9.1,65.5C236.8,216.4,216.1,254.9,201.2,254.9z M169.8,108.3c6.8-35.3,20.7-55.6,31.4-55.6c6,0,12.9,6.2,19.1,17.8
	c-11.6,11.9-27.7,24.7-48.4,36.6C171.2,107.4,170.5,107.8,169.8,108.3z M232.7,55.8c-8.3-13-18.8-21.1-31.5-21.1
	c-27.7,0-45.2,38.8-51.2,83.7c-0.9,0.5-1.9,0.9-2.8,1.3c-4.4-2.9-8.8-5.6-13.3-8.2c-16.6-9.6-34.5-17.6-51.8-22.9
	c11.8-13.7,29.9-29,54.3-43.1c24.4-14.1,49.6-23.6,70.7-26.5c4.2-0.6,8.4-0.9,12.6-0.9c11.2,0,19.2,2.7,22.1,7.7
	c0.9,1.6,1.4,3.5,1.4,5.7C243.1,37.5,239.6,46.1,232.7,55.8z"/>
<polygon class="st1" points="773.6,153.3 716.2,80 685.1,80 685.1,199.8 716.2,199.8 716.2,126.5 773.6,199.8 804.7,199.8 804.7,80 
	773.6,80 "/>
<polygon class="st1" points="922.3,106.4 947.7,106.4 947.7,199.8 978.8,199.8 978.8,106.4 1004.6,106.4 1004.6,80 922.3,80 "/>
<polygon class="st1" points="1141,157.4 1117.3,80 1092.5,80 1067.1,157.4 1046.3,80 1013.8,80 1049.5,199.8 1081.2,199.8 
	1104.2,130.4 1126.1,199.8 1157.8,199.8 1196.1,80 1163.6,80 "/>
<path class="st1" d="M1277.5,76.4c-20,0-36.4,6.7-49,20c-11.5,12.2-17.3,26.4-17.3,42.8c0,18.6,6.2,34.1,18.7,46.4
	c12.5,12.3,28.1,18.5,47,18.5c20.4,0,37-6.7,49.7-20c11.5-12.2,17.2-26.8,17.2-43.9c0-17-5.7-31.6-17.2-43.8
	C1314,83.1,1297.6,76.4,1277.5,76.4z M1301.4,164.1c-6.6,6.6-14.5,9.9-23.8,9.9c-9.4,0-17.4-3.3-24-9.9c-6.5-6.6-9.8-14.6-9.8-24.2
	c0-9.1,3.3-16.8,9.9-23.4c6.6-6.6,14.5-9.9,23.7-9.9c9.4,0,17.3,3.3,23.9,9.9c6.6,6.5,9.9,14.4,9.9,23.7
	C1311.3,149.5,1308,157.5,1301.4,164.1z"/>
<polygon class="st1" points="1518.7,136.7 1566.3,80 1527.8,80 1489.8,129.4 1489.8,80 1458.6,80 1458.6,199.8 1489.8,199.8 
	1489.8,147.9 1530.3,199.8 1570.7,199.8 "/>
<path class="st1" d="M1419.5,139.2c4.4-5.7,6.6-13.1,6.6-22.1c0-9.2-2.8-17.3-8.3-24.2c-6.7-8.6-17.2-12.9-31.3-12.9h-17.4v24h5.9
	c6.1,0,10.8,1.3,14.1,3.9c3.3,2.6,5,6.2,5,10.9c0,4.7-1.7,8.4-5,10.9c-3.3,2.6-8,3.9-14.1,3.9h-5.9v20.2l29.7,46h38.8l-37.6-49.1
	C1408.6,148.7,1415,144.9,1419.5,139.2z"/>
<polygon class="st1" points="868.9,152.7 903.9,152.7 903.9,126.3 868.9,126.3 837.8,126.3 837.8,199.8 906,199.8 906,173.4 
	868.9,173.4 "/>
<polygon class="st1" points="837.8,106.4 868.9,106.4 906,106.4 906,80 837.8,80 "/>
<g>
	<path class="st0" d="M395.8,87.2h-40.6v43.5h39.5v7.2h-39.5v62h-7.9V80h48.5V87.2z"/>
	<path class="st0" d="M512.6,104.4c-10.2-12-25-18.9-40.4-18.9c-30.7,0-53.7,24.6-53.7,55c0,35.6,29.6,54.1,53.9,54.1
		c12,0,28-4.9,40.2-18.1v10.4c-12.2,10.8-27,14.9-39.9,14.9c-35.9,0-62.5-28.2-62.5-61.6c0-34.5,27.7-61.8,62.2-61.8
		c22.8,0,36.7,12.2,40.2,15.6V104.4z"/>
	<path class="st0" d="M546.4,130.8H619V80h7.9v119.8H619V138h-72.6v61.8h-7.9V80h7.9V130.8z"/>
</g>
</svg>
