<?xml version="1.0" standalone="no"?>
<!DOCTYPE svg PUBLIC "-//W3C//DTD SVG 20010904//EN"
 "http://www.w3.org/TR/2001/REC-SVG-20010904/DTD/svg10.dtd">
<svg version="1.0" xmlns="http://www.w3.org/2000/svg"
 width="170.000000pt" height="170.000000pt" viewBox="0 0 170.000000 170.000000"
 preserveAspectRatio="xMidYMid meet">
<metadata>
Created by potrace 1.11, written by Peter Selinger 2001-2013
</metadata>
<g transform="translate(0.000000,170.000000) scale(0.100000,-0.100000)"
fill="#000000" stroke="none">
<path d="M0 850 l0 -850 850 0 850 0 0 850 0 850 -850 0 -850 0 0 -850z m1411
431 c-3 -49 -11 -95 -18 -102 -8 -8 -33 -6 -100 9 -68 16 -230 42 -262 42 -2
0 6 11 19 25 40 43 166 124 262 170 l93 44 6 -48 c4 -27 4 -90 0 -140z m-518
-113 c-6 -7 -29 -37 -52 -66 -53 -69 -107 -167 -147 -265 l-32 -78 -35 85
c-20 46 -45 118 -57 160 -19 69 -20 77 -5 99 16 24 93 48 220 66 94 13 119 13
108 -1z m122 -50 c99 -116 215 -340 201 -386 -8 -24 -23 -28 -140 -41 -123
-14 -334 3 -360 29 -38 38 185 438 246 440 9 0 33 -19 53 -42z m-505 -82 c19
-74 53 -170 81 -233 l27 -61 -51 17 c-78 27 -183 83 -266 141 l-74 53 24 18
c43 34 219 118 234 113 8 -4 20 -25 25 -48z"/>
</g>
</svg>
